<?xml version="1.0" encoding="UTF-8"?>
<svg xmlns="http://www.w3.org/2000/svg" xmlns:xlink="http://www.w3.org/1999/xlink" width="512pt" height="512pt" viewBox="0 0 512 512" version="1.1">
<defs>
<linearGradient id="linear0" gradientUnits="userSpaceOnUse" x1="86" y1="24.41056" x2="86" y2="146.94175" gradientTransform="matrix(2.976744,0,0,2.976744,0,0)">
<stop offset="0" style="stop-color:rgb(16.470588%,96.078431%,59.607843%);stop-opacity:1;"/>
<stop offset="1" style="stop-color:rgb(0%,61.960784%,99.215686%);stop-opacity:1;"/>
</linearGradient>
<linearGradient id="linear1" gradientUnits="userSpaceOnUse" x1="86" y1="51.0625" x2="86" y2="120.9375" gradientTransform="matrix(2.976744,0,0,2.976744,0,0)">
<stop offset="0" style="stop-color:rgb(58.431373%,98.039216%,80%);stop-opacity:1;"/>
<stop offset="1" style="stop-color:rgb(43.137255%,78.431373%,100%);stop-opacity:1;"/>
</linearGradient>
</defs>
<g id="surface3377957">
<path style=" stroke:none;fill-rule:nonzero;fill:url(#linear0);" d="M 400 440 L 112 440 C 89.945312 440 72 422.054688 72 400 L 72 112 C 72 89.945312 89.945312 72 112 72 L 400 72 C 422.054688 72 440 89.945312 440 112 L 440 400 C 440 422.054688 422.054688 440 400 440 Z M 112 88 C 98.769531 88 88 98.769531 88 112 L 88 400 C 88 413.230469 98.769531 424 112 424 L 400 424 C 413.230469 424 424 413.230469 424 400 L 424 112 C 424 98.769531 413.230469 88 400 88 Z M 112 88 "/>
<path style=" stroke:none;fill-rule:nonzero;fill:url(#linear1);" d="M 344 232 L 336 232 C 327.121094 232 320 224.800781 320 216 C 320 180.800781 291.199219 152 256 152 L 216 152 C 180.800781 152 152 180.800781 152 216 L 152 296 C 152 331.199219 180.800781 360 216 360 L 296 360 C 331.199219 360 360 331.199219 360 296 L 360 248 C 360 239.199219 352.800781 232 344 232 Z M 216 200 L 256 200 C 264.800781 200 272 207.199219 272 216 C 272 224.800781 264.800781 232 256 232 L 216 232 C 207.199219 232 200 224.800781 200 216 C 200 207.199219 207.199219 200 216 200 Z M 296 312 L 216 312 C 207.199219 312 200 304.800781 200 296 C 200 287.199219 207.199219 280 216 280 L 296 280 C 304.800781 280 312 287.199219 312 296 C 312 304.800781 304.800781 312 296 312 Z M 296 312 "/>
<path style=" stroke:none;fill-rule:nonzero;fill:rgb(7.058824%,7.058824%,8.235294%);fill-opacity:1;" d="M 114.785156 399.777344 L 118.535156 393.527344 L 119.785156 393.527344 C 119.785156 394.457031 119.695312 395.640625 119.515625 397.066406 C 119.335938 398.515625 119.058594 399.914062 118.683594 401.265625 C 118.007812 401.621094 117.285156 401.941406 116.511719 402.21875 C 115.734375 402.496094 114.921875 402.714844 114.070312 402.871094 C 113.234375 403.050781 112.410156 403.171875 111.597656 403.230469 C 110.785156 403.289062 110.03125 403.320312 109.335938 403.320312 C 106.457031 403.320312 104.027344 402.921875 102.042969 402.128906 C 100.039062 401.316406 98.421875 400.242188 97.191406 398.914062 C 95.960938 397.605469 95.066406 396.144531 94.511719 394.539062 C 93.957031 392.910156 93.679688 391.28125 93.679688 389.65625 C 93.679688 386.222656 94.175781 383.097656 95.167969 380.277344 C 96.140625 377.460938 97.527344 375.050781 99.332031 373.046875 C 101.140625 371.042969 103.332031 369.484375 105.914062 368.371094 C 108.492188 367.261719 111.398438 366.707031 114.632812 366.707031 C 116.855469 366.707031 118.742188 366.855469 120.289062 367.152344 C 121.859375 367.449219 123.15625 367.867188 124.191406 368.402344 C 124.089844 368.957031 123.953125 369.59375 123.773438 370.308594 C 123.59375 371.042969 123.375 371.804688 123.117188 372.597656 C 122.859375 373.414062 122.59375 374.207031 122.3125 374.980469 C 122.054688 375.753906 121.808594 376.46875 121.570312 377.125 L 120.261719 377.125 L 119.1875 369.832031 C 118.753906 369.652344 118.085938 369.523438 117.195312 369.445312 C 116.300781 369.363281 115.429688 369.324219 114.574219 369.324219 C 112.351562 369.324219 110.296875 369.75 108.414062 370.605469 C 106.527344 371.476562 104.890625 372.757812 103.5 374.445312 C 102.113281 376.132812 101.03125 378.234375 100.257812 380.753906 C 99.484375 383.296875 99.097656 386.234375 99.097656 389.566406 C 99.097656 391.648438 99.464844 393.417969 100.195312 394.863281 C 100.910156 396.292969 101.816406 397.445312 102.90625 398.316406 C 104.015625 399.191406 105.207031 399.816406 106.476562 400.195312 C 107.769531 400.570312 108.988281 400.738281 110.140625 400.699219 C 111.289062 400.738281 112.253906 400.648438 113.027344 400.429688 C 113.820312 400.234375 114.40625 400.015625 114.785156 399.777344 Z M 143.417969 399.957031 L 147.171875 399.957031 L 147.171875 401.207031 C 146.496094 401.742188 145.683594 402.179688 144.730469 402.515625 C 143.757812 402.851562 142.8125 403.019531 141.902344 403.019531 C 140.929688 403.019531 140.234375 402.824219 139.816406 402.425781 C 139.402344 402.007812 139.191406 401.574219 139.191406 401.117188 C 139.191406 400.5 139.273438 399.480469 139.429688 398.050781 C 139.589844 396.621094 139.957031 394.875 140.53125 392.8125 L 140.351562 392.8125 C 139.898438 393.742188 139.339844 394.824219 138.6875 396.054688 C 138.03125 397.265625 137.246094 398.40625 136.335938 399.480469 C 135.421875 400.570312 134.390625 401.484375 133.238281 402.21875 C 132.066406 402.953125 130.777344 403.320312 129.371094 403.320312 C 128.179688 403.320312 127.175781 402.914062 126.363281 402.097656 C 125.570312 401.265625 125.171875 400.09375 125.171875 398.585938 C 125.171875 397.832031 125.28125 396.730469 125.5 395.28125 C 125.738281 393.832031 126.027344 392.246094 126.363281 390.519531 C 126.699219 388.8125 127.066406 387.054688 127.464844 385.25 C 127.839844 383.445312 128.1875 381.816406 128.507812 380.367188 L 125.410156 379.890625 L 125.410156 378.640625 C 125.945312 378.445312 126.53125 378.234375 127.167969 378.015625 C 127.78125 377.816406 128.40625 377.640625 129.042969 377.480469 C 129.65625 377.300781 130.253906 377.152344 130.828125 377.035156 C 131.402344 376.914062 131.929688 376.847656 132.40625 376.824219 L 133.507812 377.421875 C 132.972656 379.941406 132.425781 382.34375 131.871094 384.625 C 131.3125 386.90625 130.796875 389.308594 130.320312 391.828125 C 130.164062 392.640625 129.984375 393.546875 129.785156 394.539062 C 129.609375 395.550781 129.519531 396.640625 129.519531 397.8125 C 129.519531 398.527344 129.707031 399.101562 130.082031 399.539062 C 130.480469 399.976562 130.925781 400.195312 131.421875 400.195312 C 132.175781 400.195312 132.921875 399.976562 133.65625 399.539062 C 134.410156 399.101562 135.113281 398.527344 135.769531 397.8125 C 136.425781 397.097656 137.050781 396.3125 137.644531 395.460938 C 138.21875 394.605469 138.746094 393.753906 139.222656 392.902344 C 139.699219 392.066406 140.09375 391.28125 140.414062 390.550781 C 140.730469 389.835938 140.980469 389.25 141.15625 388.792969 L 143.390625 377.421875 L 147.585938 377.421875 Z M 169.347656 382.570312 L 165.328125 380.515625 C 164.457031 380.855469 163.472656 381.707031 162.382812 383.078125 C 161.289062 384.425781 160.316406 386.273438 159.464844 388.613281 L 156.429688 402.722656 L 152.082031 402.722656 L 156.785156 380.367188 L 153.6875 379.890625 L 153.6875 378.640625 C 154.839844 378.105469 156.039062 377.6875 157.292969 377.390625 C 158.542969 377.113281 159.671875 376.925781 160.683594 376.824219 L 161.695312 377.421875 L 160.269531 384.148438 L 160.476562 384.148438 C 161.449219 381.925781 162.648438 380.148438 164.078125 378.820312 C 165.488281 377.492188 167.003906 376.824219 168.632812 376.824219 C 169.070312 376.824219 169.503906 376.867188 169.941406 376.945312 C 170.378906 377.023438 170.804688 377.183594 171.222656 377.421875 C 171.222656 377.71875 171.171875 378.117188 171.074219 378.613281 C 170.953125 379.109375 170.804688 379.605469 170.628906 380.101562 C 170.449219 380.617188 170.25 381.101562 170.03125 381.558594 C 169.8125 381.996094 169.585938 382.332031 169.347656 382.570312 Z M 176.222656 380.398438 L 172.980469 379.890625 L 172.980469 378.640625 C 173.496094 378.445312 174.070312 378.234375 174.707031 378.015625 C 175.339844 377.777344 175.996094 377.582031 176.667969 377.421875 C 177.34375 377.242188 177.988281 377.105469 178.605469 377.003906 C 179.199219 376.886719 179.734375 376.824219 180.210938 376.824219 L 181.136719 377.421875 L 176.371094 399.894531 L 180.121094 399.894531 L 180.121094 401.207031 C 179.410156 401.742188 178.585938 402.179688 177.652344 402.515625 C 176.699219 402.851562 175.765625 403.019531 174.855469 403.019531 C 173.882812 403.019531 173.175781 402.804688 172.742188 402.367188 C 172.324219 401.929688 172.117188 401.425781 172.117188 400.847656 C 172.117188 400.171875 172.164062 399.519531 172.265625 398.882812 C 172.363281 398.230469 172.503906 397.515625 172.679688 396.742188 Z M 177.027344 368.667969 C 177.027344 367.796875 177.292969 367.101562 177.832031 366.585938 C 178.386719 366.089844 179.101562 365.84375 179.972656 365.84375 C 180.90625 365.84375 181.652344 366.089844 182.207031 366.585938 C 182.742188 367.101562 183.011719 367.796875 183.011719 368.667969 C 183.011719 369.503906 182.742188 370.15625 182.207031 370.632812 C 181.652344 371.109375 180.90625 371.347656 179.972656 371.347656 C 179.101562 371.347656 178.386719 371.109375 177.832031 370.632812 C 177.292969 370.15625 177.027344 369.503906 177.027344 368.667969 Z M 185.480469 393.316406 C 185.480469 391.53125 185.757812 389.664062 186.3125 387.722656 C 186.871094 385.777344 187.722656 384 188.875 382.390625 C 190.027344 380.765625 191.453125 379.425781 193.160156 378.375 C 194.886719 377.34375 196.902344 376.824219 199.203125 376.824219 C 201.824219 376.824219 203.796875 377.628906 205.128906 379.238281 C 206.476562 380.863281 207.152344 383.265625 207.152344 386.441406 C 207.152344 388.664062 206.824219 390.796875 206.167969 392.839844 C 205.535156 394.886719 204.640625 396.679688 203.488281 398.230469 C 202.339844 399.777344 200.960938 401.015625 199.351562 401.949219 C 197.726562 402.863281 195.9375 403.320312 193.996094 403.320312 C 191.394531 403.320312 189.320312 402.484375 187.773438 400.820312 C 186.246094 399.152344 185.480469 396.652344 185.480469 393.316406 Z M 198.191406 379 C 196.523438 379.019531 195.175781 379.554688 194.144531 380.605469 C 193.089844 381.660156 192.257812 382.957031 191.644531 384.507812 C 191.046875 386.054688 190.628906 387.722656 190.390625 389.507812 C 190.15625 391.292969 190.035156 392.929688 190.035156 394.417969 C 190.035156 396.402344 190.472656 398.019531 191.34375 399.269531 C 192.21875 400.519531 193.398438 401.144531 194.886719 401.144531 C 196.078125 401.144531 197.128906 400.699219 198.042969 399.804688 C 198.976562 398.914062 199.769531 397.734375 200.425781 396.265625 C 201.097656 394.796875 201.605469 393.136719 201.941406 391.292969 C 202.300781 389.425781 202.476562 387.550781 202.476562 385.667969 C 202.476562 383.683594 202.128906 382.085938 201.4375 380.875 C 200.761719 379.644531 199.679688 379.019531 198.191406 379 Z M 230.101562 399.957031 L 233.851562 399.957031 L 233.851562 401.207031 C 233.179688 401.742188 232.363281 402.179688 231.410156 402.515625 C 230.441406 402.851562 229.496094 403.019531 228.585938 403.019531 C 227.613281 403.019531 226.917969 402.824219 226.5 402.425781 C 226.082031 402.007812 225.875 401.574219 225.875 401.117188 C 225.875 400.5 225.953125 399.480469 226.113281 398.050781 C 226.292969 396.621094 226.667969 394.875 227.246094 392.8125 L 227.035156 392.8125 C 226.601562 393.742188 226.042969 394.824219 225.371094 396.054688 C 224.714844 397.265625 223.929688 398.40625 223.019531 399.480469 C 222.125 400.570312 221.09375 401.484375 219.921875 402.21875 C 218.75 402.953125 217.460938 403.320312 216.050781 403.320312 C 214.863281 403.320312 213.871094 402.914062 213.074219 402.097656 C 212.261719 401.265625 211.855469 400.09375 211.855469 398.585938 C 211.855469 397.832031 211.972656 396.730469 212.210938 395.28125 C 212.449219 393.832031 212.738281 392.246094 213.074219 390.519531 C 213.414062 388.8125 213.769531 387.054688 214.148438 385.25 C 214.542969 383.445312 214.890625 381.816406 215.1875 380.367188 L 212.09375 379.890625 L 212.09375 378.640625 C 212.628906 378.445312 213.214844 378.234375 213.847656 378.015625 C 214.464844 377.816406 215.089844 377.640625 215.726562 377.480469 C 216.339844 377.300781 216.933594 377.152344 217.511719 377.035156 C 218.085938 376.914062 218.613281 376.847656 219.089844 376.824219 L 220.191406 377.421875 C 219.652344 379.941406 219.109375 382.34375 218.550781 384.625 C 217.996094 386.90625 217.480469 389.308594 217.003906 391.828125 C 216.847656 392.640625 216.667969 393.546875 216.46875 394.539062 C 216.289062 395.550781 216.199219 396.640625 216.199219 397.8125 C 216.199219 398.527344 216.390625 399.101562 216.765625 399.539062 C 217.164062 399.976562 217.621094 400.195312 218.136719 400.195312 C 218.871094 400.195312 219.605469 399.976562 220.339844 399.539062 C 221.09375 399.101562 221.796875 398.527344 222.453125 397.8125 C 223.105469 397.097656 223.730469 396.3125 224.328125 395.460938 C 224.921875 394.605469 225.449219 393.753906 225.90625 392.902344 C 226.382812 392.066406 226.777344 391.28125 227.097656 390.550781 C 227.414062 389.835938 227.660156 389.25 227.839844 388.792969 L 230.074219 377.421875 L 234.269531 377.421875 Z M 242.21875 391.800781 L 242.722656 399.242188 C 243.082031 399.539062 243.707031 399.867188 244.597656 400.222656 C 245.472656 400.582031 246.394531 400.738281 247.367188 400.699219 C 248.480469 400.738281 249.558594 400.648438 250.613281 400.429688 C 251.664062 400.234375 252.605469 399.886719 253.441406 399.390625 C 254.292969 398.875 254.96875 398.207031 255.464844 397.394531 C 255.980469 396.5625 256.238281 395.519531 256.238281 394.269531 C 256.238281 392.878906 255.902344 391.71875 255.226562 390.785156 C 254.570312 389.835938 253.757812 389 252.785156 388.285156 C 251.8125 387.550781 250.761719 386.859375 249.628906 386.203125 C 248.5 385.546875 247.445312 384.8125 246.472656 384 C 245.480469 383.1875 244.660156 382.234375 244.003906 381.140625 C 243.347656 380.050781 243.019531 378.691406 243.019531 377.0625 C 243.019531 375.515625 243.300781 374.105469 243.855469 372.835938 C 244.410156 371.566406 245.234375 370.476562 246.324219 369.5625 C 247.4375 368.667969 248.777344 367.964844 250.34375 367.449219 C 251.933594 366.953125 253.738281 366.707031 255.761719 366.707031 C 257.824219 366.707031 259.671875 366.863281 261.296875 367.179688 C 262.90625 367.5 264.167969 367.894531 265.078125 368.371094 C 264.941406 368.949219 264.75 369.613281 264.511719 370.367188 C 264.253906 371.121094 263.988281 371.90625 263.710938 372.71875 C 263.453125 373.53125 263.164062 374.316406 262.847656 375.070312 C 262.550781 375.824219 262.28125 376.488281 262.042969 377.0625 L 260.734375 377.0625 L 260.136719 370.128906 C 259.5625 369.871094 258.828125 369.671875 257.933594 369.53125 C 257.042969 369.394531 256.070312 369.324219 255.019531 369.324219 C 254.003906 369.324219 253.054688 369.445312 252.160156 369.683594 C 251.265625 369.921875 250.492188 370.277344 249.839844 370.753906 C 249.164062 371.25 248.648438 371.863281 248.289062 372.597656 C 247.914062 373.351562 247.726562 374.234375 247.726562 375.25 C 247.726562 376.597656 248.050781 377.71875 248.707031 378.613281 C 249.363281 379.503906 250.183594 380.308594 251.175781 381.023438 C 252.148438 381.71875 253.203125 382.402344 254.332031 383.078125 C 255.464844 383.730469 256.515625 384.476562 257.488281 385.308594 C 258.460938 386.164062 259.285156 387.183594 259.960938 388.375 C 260.613281 389.566406 260.941406 391.046875 260.941406 392.8125 C 260.941406 394.398438 260.625 395.828125 259.988281 397.097656 C 259.375 398.386719 258.480469 399.5 257.308594 400.429688 C 256.160156 401.34375 254.730469 402.058594 253.023438 402.574219 C 251.316406 403.070312 249.382812 403.320312 247.21875 403.320312 C 246.148438 403.320312 245.105469 403.257812 244.09375 403.140625 C 243.101562 403 242.199219 402.8125 241.382812 402.574219 C 240.550781 402.335938 239.816406 402.078125 239.179688 401.800781 C 238.527344 401.503906 238.03125 401.226562 237.691406 400.96875 C 237.832031 400.351562 238.03125 399.628906 238.289062 398.792969 C 238.546875 397.980469 238.824219 397.148438 239.121094 396.292969 C 239.417969 395.460938 239.726562 394.648438 240.042969 393.851562 C 240.34375 393.058594 240.628906 392.375 240.90625 391.800781 Z M 287.703125 399.777344 L 291.453125 393.527344 L 292.703125 393.527344 C 292.703125 394.457031 292.613281 395.640625 292.433594 397.066406 C 292.257812 398.515625 291.980469 399.914062 291.601562 401.265625 C 290.925781 401.621094 290.203125 401.941406 289.429688 402.21875 C 288.65625 402.496094 287.839844 402.714844 286.988281 402.871094 C 286.15625 403.050781 285.332031 403.171875 284.515625 403.230469 C 283.703125 403.289062 282.941406 403.320312 282.226562 403.320312 C 279.367188 403.320312 276.945312 402.921875 274.960938 402.128906 C 272.957031 401.316406 271.339844 400.242188 270.109375 398.914062 C 268.878906 397.605469 267.988281 396.144531 267.429688 394.539062 C 266.875 392.910156 266.597656 391.28125 266.597656 389.65625 C 266.597656 386.222656 267.082031 383.097656 268.054688 380.277344 C 269.046875 377.460938 270.445312 375.050781 272.253906 373.046875 C 274.058594 371.042969 276.25 369.484375 278.832031 368.371094 C 281.410156 367.261719 284.320312 366.707031 287.554688 366.707031 C 289.777344 366.707031 291.660156 366.855469 293.210938 367.152344 C 294.777344 367.449219 296.078125 367.867188 297.109375 368.402344 C 297.007812 368.957031 296.871094 369.59375 296.691406 370.308594 C 296.492188 371.042969 296.273438 371.804688 296.039062 372.597656 C 295.777344 373.414062 295.511719 374.207031 295.234375 374.980469 C 294.976562 375.753906 294.726562 376.46875 294.488281 377.125 L 293.179688 377.125 L 292.109375 369.832031 C 291.671875 369.652344 291.007812 369.523438 290.113281 369.445312 C 289.21875 369.363281 288.347656 369.324219 287.492188 369.324219 C 285.269531 369.324219 283.21875 369.75 281.332031 370.605469 C 279.445312 371.476562 277.808594 372.757812 276.421875 374.445312 C 275.03125 376.132812 273.949219 378.234375 273.175781 380.753906 C 272.402344 383.296875 272.015625 386.234375 272.015625 389.566406 C 272.015625 391.648438 272.382812 393.417969 273.117188 394.863281 C 273.832031 396.292969 274.734375 397.445312 275.824219 398.316406 C 276.9375 399.191406 278.128906 399.816406 279.398438 400.195312 C 280.6875 400.570312 281.90625 400.738281 283.058594 400.699219 C 284.191406 400.738281 285.152344 400.648438 285.945312 400.429688 C 286.738281 400.234375 287.324219 400.015625 287.703125 399.777344 Z M 296.601562 393.316406 C 296.601562 391.53125 296.878906 389.664062 297.4375 387.722656 C 297.992188 385.777344 298.84375 384 299.996094 382.390625 C 301.148438 380.765625 302.585938 379.425781 304.3125 378.375 C 306.019531 377.34375 308.023438 376.824219 310.324219 376.824219 C 312.945312 376.824219 314.929688 377.628906 316.277344 379.238281 C 317.609375 380.863281 318.273438 383.265625 318.273438 386.441406 C 318.273438 388.664062 317.957031 390.796875 317.320312 392.839844 C 316.667969 394.886719 315.761719 396.679688 314.613281 398.230469 C 313.480469 399.777344 312.101562 401.015625 310.472656 401.949219 C 308.847656 402.863281 307.0625 403.320312 305.117188 403.320312 C 302.515625 403.320312 300.453125 402.484375 298.925781 400.820312 C 297.375 399.152344 296.601562 396.652344 296.601562 393.316406 Z M 309.3125 379 C 307.667969 379.019531 306.316406 379.554688 305.265625 380.605469 C 304.214844 381.660156 303.390625 382.957031 302.792969 384.507812 C 302.179688 386.054688 301.753906 387.722656 301.515625 389.507812 C 301.277344 391.292969 301.15625 392.929688 301.15625 394.417969 C 301.15625 396.402344 301.59375 398.019531 302.46875 399.269531 C 303.359375 400.519531 304.539062 401.144531 306.007812 401.144531 C 307.199219 401.144531 308.261719 400.699219 309.195312 399.804688 C 310.105469 398.914062 310.902344 397.734375 311.574219 396.265625 C 312.230469 394.796875 312.738281 393.136719 313.09375 391.292969 C 313.429688 389.425781 313.601562 387.550781 313.601562 385.667969 C 313.601562 383.683594 313.261719 382.085938 312.589844 380.875 C 311.894531 379.644531 310.800781 379.019531 309.3125 379 Z M 329.972656 400.195312 C 330.863281 400.195312 331.769531 399.765625 332.679688 398.914062 C 333.59375 398.039062 334.457031 397 335.269531 395.789062 C 336.085938 394.578125 336.808594 393.316406 337.445312 392.007812 C 338.078125 390.679688 338.585938 389.578125 338.960938 388.703125 L 340.570312 380.039062 C 340.074219 379.703125 339.617188 379.476562 339.199219 379.355469 C 338.785156 379.238281 338.179688 379.167969 337.382812 379.148438 C 335.777344 379.167969 334.328125 379.664062 333.039062 380.636719 C 331.769531 381.589844 330.6875 382.820312 329.792969 384.328125 C 328.921875 385.835938 328.253906 387.511719 327.800781 389.359375 C 327.34375 391.222656 327.113281 393.050781 327.113281 394.835938 C 327.113281 396.542969 327.332031 397.863281 327.769531 398.792969 C 328.1875 399.726562 328.921875 400.195312 329.972656 400.195312 Z M 338.15625 392.8125 L 337.949219 392.8125 C 337.511719 394.023438 336.957031 395.253906 336.28125 396.503906 C 335.609375 397.753906 334.84375 398.882812 333.992188 399.894531 C 333.117188 400.90625 332.164062 401.730469 331.132812 402.367188 C 330.121094 403 329.019531 403.320312 327.828125 403.320312 C 324.316406 403.320312 322.558594 400.757812 322.558594 395.640625 C 322.558594 393.238281 322.898438 390.914062 323.570312 388.671875 C 324.246094 386.429688 325.230469 384.445312 326.519531 382.71875 C 327.789062 380.972656 329.335938 379.574219 331.164062 378.523438 C 332.988281 377.492188 335.0625 376.976562 337.382812 376.976562 C 338.277344 376.976562 338.941406 377.035156 339.378906 377.152344 C 339.816406 377.273438 340.371094 377.480469 341.046875 377.777344 L 342.949219 368.222656 L 339.410156 367.746094 L 339.410156 366.496094 C 339.925781 366.296875 340.480469 366.101562 341.074219 365.902344 C 341.691406 365.722656 342.324219 365.554688 342.980469 365.394531 C 343.636719 365.257812 344.300781 365.117188 344.976562 364.980469 C 345.648438 364.839844 346.273438 364.742188 346.851562 364.679688 L 347.921875 365.066406 L 340.984375 399.957031 L 344.675781 399.957031 L 344.675781 401.207031 C 344.003906 401.742188 343.199219 402.179688 342.265625 402.515625 C 341.3125 402.851562 340.378906 403.019531 339.46875 403.019531 C 338.496094 403.019531 337.800781 402.8125 337.382812 402.394531 C 336.949219 401.980469 336.730469 401.53125 336.730469 401.058594 C 336.730469 400.441406 336.847656 399.449219 337.085938 398.078125 C 337.324219 396.691406 337.683594 394.933594 338.15625 392.8125 Z M 366.378906 397.246094 L 367.210938 398.230469 C 366.894531 398.863281 366.445312 399.488281 365.871094 400.105469 C 365.316406 400.699219 364.652344 401.246094 363.878906 401.742188 C 363.082031 402.21875 362.199219 402.605469 361.226562 402.902344 C 360.253906 403.179688 359.214844 403.320312 358.101562 403.320312 C 355.304688 403.320312 353.152344 402.523438 351.644531 400.9375 C 350.132812 399.332031 349.378906 397.109375 349.378906 394.269531 C 349.378906 391.867188 349.71875 389.605469 350.390625 387.484375 C 351.066406 385.359375 352.011719 383.503906 353.21875 381.917969 C 354.449219 380.328125 355.929688 379.078125 357.65625 378.164062 C 359.402344 377.273438 361.335938 376.824219 363.460938 376.824219 C 365.066406 376.824219 366.457031 377.234375 367.628906 378.046875 C 368.796875 378.878906 369.382812 380.109375 369.382812 381.738281 C 369.382812 384.117188 368.195312 386.003906 365.8125 387.394531 C 363.429688 388.78125 359.589844 389.675781 354.292969 390.074219 C 354.152344 390.648438 354.0625 391.203125 354.023438 391.738281 C 353.964844 392.273438 353.933594 392.800781 353.933594 393.316406 C 353.933594 395.339844 354.449219 396.988281 355.484375 398.257812 C 356.515625 399.546875 358.023438 400.195312 360.007812 400.195312 C 360.664062 400.195312 361.296875 400.09375 361.914062 399.894531 C 362.546875 399.699219 363.144531 399.4375 363.699219 399.121094 C 364.253906 398.824219 364.761719 398.507812 365.214844 398.167969 C 365.652344 397.832031 366.039062 397.523438 366.378906 397.246094 Z M 361.882812 379 C 360.433594 379.019531 359.085938 379.703125 357.835938 381.054688 C 356.585938 382.382812 355.523438 384.664062 354.648438 387.898438 C 357.921875 387.800781 360.472656 387.234375 362.300781 386.203125 C 364.125 385.171875 365.039062 383.742188 365.039062 381.917969 C 365.039062 381.222656 364.820312 380.566406 364.382812 379.953125 C 363.964844 379.335938 363.132812 379.019531 361.882812 379 Z M 389.773438 382.570312 L 385.785156 380.515625 C 384.894531 380.855469 383.902344 381.707031 382.808594 383.078125 C 381.71875 384.425781 380.746094 386.273438 379.890625 388.613281 L 376.855469 402.722656 L 372.511719 402.722656 L 377.214844 380.367188 L 374.148438 379.890625 L 374.148438 378.640625 C 375.277344 378.105469 376.46875 377.6875 377.71875 377.390625 C 378.96875 377.113281 380.101562 376.925781 381.113281 376.824219 L 382.125 377.421875 L 380.726562 384.148438 L 380.902344 384.148438 C 381.894531 381.925781 383.097656 380.148438 384.507812 378.820312 C 385.933594 377.492188 387.453125 376.824219 389.058594 376.824219 C 389.496094 376.824219 389.933594 376.867188 390.371094 376.945312 C 390.808594 377.023438 391.234375 377.183594 391.648438 377.421875 C 391.648438 377.71875 391.601562 378.117188 391.5 378.613281 C 391.402344 379.109375 391.253906 379.605469 391.054688 380.101562 C 390.875 380.617188 390.679688 381.101562 390.460938 381.558594 C 390.242188 381.996094 390.011719 382.332031 389.773438 382.570312 Z M 395.429688 391.800781 L 395.9375 399.242188 C 396.3125 399.539062 396.9375 399.867188 397.8125 400.222656 C 398.683594 400.582031 399.617188 400.738281 400.609375 400.699219 C 401.722656 400.738281 402.804688 400.648438 403.855469 400.429688 C 404.886719 400.234375 405.828125 399.886719 406.683594 399.390625 C 407.515625 398.875 408.191406 398.207031 408.707031 397.394531 C 409.203125 396.5625 409.449219 395.519531 409.449219 394.269531 C 409.449219 392.878906 409.125 391.71875 408.46875 390.785156 C 407.8125 389.835938 407 389 406.027344 388.285156 C 405.035156 387.550781 403.972656 386.859375 402.84375 386.203125 C 401.710938 385.546875 400.660156 384.8125 399.6875 384 C 398.714844 383.1875 397.902344 382.234375 397.246094 381.140625 C 396.589844 380.050781 396.265625 378.691406 396.265625 377.0625 C 396.265625 375.515625 396.542969 374.105469 397.097656 372.835938 C 397.652344 371.566406 398.476562 370.476562 399.570312 369.5625 C 400.660156 368.667969 402 367.964844 403.585938 367.449219 C 405.175781 366.953125 406.980469 366.707031 409.003906 366.707031 C 411.070312 366.707031 412.902344 366.863281 414.511719 367.179688 C 416.140625 367.5 417.410156 367.894531 418.320312 368.371094 C 418.183594 368.949219 417.984375 369.613281 417.726562 370.367188 C 417.46875 371.121094 417.210938 371.90625 416.953125 372.71875 C 416.675781 373.53125 416.386719 374.316406 416.089844 375.070312 C 415.792969 375.824219 415.523438 376.488281 415.285156 377.0625 L 413.976562 377.0625 L 413.351562 370.128906 C 412.773438 369.871094 412.039062 369.671875 411.148438 369.53125 C 410.253906 369.394531 409.28125 369.324219 408.230469 369.324219 C 407.21875 369.324219 406.265625 369.445312 405.371094 369.683594 C 404.480469 369.921875 403.707031 370.277344 403.050781 370.753906 C 402.394531 371.25 401.878906 371.863281 401.503906 372.597656 C 401.144531 373.351562 400.96875 374.234375 400.96875 375.25 C 400.96875 376.597656 401.292969 377.71875 401.949219 378.613281 C 402.605469 379.503906 403.417969 380.308594 404.390625 381.023438 C 405.382812 381.71875 406.433594 382.402344 407.546875 383.078125 C 408.675781 383.730469 409.738281 384.476562 410.730469 385.308594 C 411.703125 386.164062 412.515625 387.183594 413.171875 388.375 C 413.828125 389.566406 414.15625 391.046875 414.15625 392.8125 C 414.15625 394.398438 413.847656 395.828125 413.230469 397.097656 C 412.597656 398.386719 411.703125 399.5 410.550781 400.429688 C 409.382812 401.34375 407.941406 402.058594 406.234375 402.574219 C 404.53125 403.070312 402.605469 403.320312 400.460938 403.320312 C 399.371094 403.320312 398.328125 403.257812 397.335938 403.140625 C 396.34375 403 395.429688 402.8125 394.597656 402.574219 C 393.785156 402.335938 393.050781 402.078125 392.394531 401.800781 C 391.757812 401.503906 391.273438 401.226562 390.9375 400.96875 C 391.074219 400.351562 391.273438 399.628906 391.53125 398.792969 C 391.769531 397.980469 392.046875 397.148438 392.363281 396.292969 C 392.664062 395.460938 392.960938 394.648438 393.257812 393.851562 C 393.574219 393.058594 393.863281 392.375 394.121094 391.800781 Z M 395.429688 391.800781 "/>
</g>
</svg>
